<?xml version="1.0" encoding="UTF-8" standalone="no"?>
<svg
   xmlns:dc="http://purl.org/dc/elements/1.1/"
   xmlns:cc="http://creativecommons.org/ns#"
   xmlns:rdf="http://www.w3.org/1999/02/22-rdf-syntax-ns#"
   xmlns:svg="http://www.w3.org/2000/svg"
   xmlns="http://www.w3.org/2000/svg"
   xmlns:sodipodi="http://sodipodi.sourceforge.net/DTD/sodipodi-0.dtd"
   xmlns:inkscape="http://www.inkscape.org/namespaces/inkscape"
   width="210mm"
   height="297mm"
   viewBox="0 0 210 297"
   version="1.1"
   id="svg8"
   sodipodi:docname="logo.svg"
   inkscape:version="1.0.2-2 (e86c870879, 2021-01-15)">
  <defs
     id="defs2" />
  <sodipodi:namedview
     id="base"
     pagecolor="#ffffff"
     bordercolor="#666666"
     borderopacity="1.0"
     inkscape:pageopacity="0.0"
     inkscape:pageshadow="2"
     inkscape:zoom="12.291093"
     inkscape:cx="91.205552"
     inkscape:cy="50.797699"
     inkscape:document-units="mm"
     inkscape:current-layer="g909"
     inkscape:document-rotation="0"
     showgrid="false"
     inkscape:window-width="1920"
     inkscape:window-height="1001"
     inkscape:window-x="-9"
     inkscape:window-y="-9"
     inkscape:window-maximized="1" />
  <metadata
     id="metadata5">
    <rdf:RDF>
      <cc:Work
         rdf:about="">
        <dc:format>image/svg+xml</dc:format>
        <dc:type
           rdf:resource="http://purl.org/dc/dcmitype/StillImage" />
      </cc:Work>
    </rdf:RDF>
  </metadata>
  <g
     inkscape:label="Ebene 1"
     inkscape:groupmode="layer"
     id="layer1">
    <g
       id="g909"
       transform="matrix(0.26458333,0,0,0.26458333,-49.508786,-3.5995456)">
      <path
         fill="#6ffca9"
         opacity="1"
         stroke="none"
         d="m 251.55339,54.397408 c -2.62485,12.897575 -14.63289,24.247266 -30.19502,24.569443 -14.09304,0.291763 -24.93852,-8.718186 -28.85005,-17.609297 0.58452,0 1.08311,0 1.58169,0 7.46612,-6e-6 14.93224,2.87e-4 22.39835,-1.35e-4 6.03625,-5.75e-4 8.85804,-2.235044 10.28967,-8.515195 2.30906,4.840564 5.74907,7.706224 11.01965,7.327436 5.33189,-0.383186 8.41225,-3.593736 9.83139,-8.581534 1.46567,0 2.89261,0 4.47072,0 -0.18625,0.945665 -0.35803,1.817833 -0.5464,2.809282 z"
         id="path857"
         style="fill:#6a835a;fill-opacity:1;stroke-width:0.287418" />
      <path
         fill="#fba00b"
         opacity="1"
         stroke="none"
         d="m 220.7989,47.115982 c -0.57193,0.03041 -1.14385,0.08701 -1.7158,0.08733 -9.52231,0.0055 -19.04462,0.0039 -28.56694,0.0039 h -1.41786 c -0.90554,-16.087097 13.85546,-32.223955 31.55994,-31.554448 v 1.541993 c 0,9.139505 -0.003,18.279013 0.007,27.418505 5.7e-4,0.563941 0.055,1.832973 0.13396,2.502707 0.0369,0.305635 0.0892,-0.199785 0,0 M 211.44148,41.4779 h 3.42365 V 21.977914 c -9.85865,1.677896 -18.37573,11.267035 -19.36512,19.499976 5.22512,0 10.44012,0 15.94147,-1.2e-5 z"
         id="path859"
         style="fill:#4e5147;fill-opacity:1;stroke-width:0.287418"
         sodipodi:nodetypes="cssccscccscccs" />
      <path
         fill="#fca10b"
         opacity="1"
         stroke="none"
         d="m 220.92773,47.154927 c -0.0396,-0.23873 0.0496,-0.438514 0.14543,-0.720857 2.43422,-6.199094 4.85569,-12.3181 7.29196,-18.431199 1.34113,-3.36521 2.70716,-6.720493 4.06011,-10.075622 10.08345,3.275363 20.19917,15.1617 19.91433,29.279344 -0.78359,0 -1.57727,3.5e-5 -2.37095,-3e-6 -3.49186,-1.72e-4 -6.98377,0.01227 -10.47555,-0.0042 -3.29107,-0.01555 -5.06961,-2.319566 -4.12094,-5.625327 4.5495,-0.09872 8.9258,-0.09872 13.29882,-0.09872 -0.0151,-3.28436 -1.60699,-5.250893 -5.18966,-6.657297 -1.67383,-3.364669 -5.08026,-7.160232 -8.05339,-8.9165 -0.19226,0.434533 -0.39157,0.851951 -0.56416,1.280135 -2.51747,6.245309 -5.055,12.482755 -7.52207,18.747941 -0.39677,1.00762 -0.89155,1.386632 -1.97905,1.300631 -1.42747,-0.112893 -2.86999,-0.03514 -4.43488,-0.07832 z"
         id="path861"
         style="fill:#4e5147;fill-opacity:1;stroke-width:0.287418" />
      <path
         fill="#fca10b"
         opacity="1"
         stroke="none"
         d="m 219.92221,52.408903 c 1.38756,2.326409 0.34499,4.287298 -2.21049,4.293305 -8.38109,0.01971 -16.76225,0.01302 -25.14336,0.0029 -1.81584,-0.0018 -2.98237,-1.044716 -2.97225,-2.586532 0.01,-1.493066 1.24075,-2.574427 3.01961,-2.576792 8.33322,-0.01109 16.6666,-0.02492 24.99949,0.02937 0.74415,0.0049 1.48518,0.491765 2.307,0.837516 z"
         id="path863"
         style="fill:#4e5147;fill-opacity:1;stroke-width:0.287418" />
      <path
         fill="#70fca9"
         opacity="1"
         stroke="none"
         d="m 243.35042,34.827598 c 4.71905,0.651548 5.30545,3.366378 5.32052,6.650737 -4.37302,0 -8.79714,0.104998 -13.29882,0.09873 0.0628,-4.394428 3.2052,-7.088971 7.9783,-6.749472 z"
         id="path865"
         style="fill:#6a835a;fill-opacity:1;stroke-width:0.287418"
         sodipodi:nodetypes="cccsc" />
    </g>
  </g>
</svg>
